<svg width="646.3" height="74.702" viewBox="0 0 646.3 74.702" xmlns="http://www.w3.org/2000/svg"><g id="svgGroup" stroke-linecap="round" fill-rule="evenodd" font-size="9pt" stroke="#000" stroke-width="0.25mm" fill="#000" style="stroke:#000;stroke-width:0.25mm;fill:#000"><path d="M 9 73.501 L 0 73.501 L 0 3.501 L 13.3 3.501 L 32.7 47.801 L 51.8 3.501 L 65.4 3.501 L 65.4 73.501 L 55.9 73.501 L 55.9 15.601 L 37.2 57.701 L 27.8 57.701 L 9 15.601 L 9 73.501 Z M 260.3 73.501 L 251.3 73.501 L 251.3 21.501 L 260 21.501 L 260 30.201 Q 262.8 26.001 267.1 23.151 A 17.205 17.205 0 0 1 276.302 20.309 A 20.858 20.858 0 0 1 276.9 20.301 A 20.994 20.994 0 0 1 281.317 20.74 Q 284.303 21.383 286.585 22.964 A 13.128 13.128 0 0 1 287.05 23.301 A 15.751 15.751 0 0 1 292.498 30.99 A 19.154 19.154 0 0 1 292.6 31.301 Q 295.7 26.701 299.95 23.501 A 15.669 15.669 0 0 1 306.741 20.617 A 21.446 21.446 0 0 1 310.5 20.301 A 21.437 21.437 0 0 1 315.388 20.823 Q 318.974 21.663 321.463 23.852 A 12.994 12.994 0 0 1 323.15 25.651 A 18.992 18.992 0 0 1 326.561 32.923 Q 327.3 35.973 327.3 39.601 L 327.3 73.501 L 318.3 73.501 L 318.3 40.301 A 19.042 19.042 0 0 0 317.963 36.611 Q 317.527 34.406 316.528 32.662 A 10.982 10.982 0 0 0 315.8 31.551 A 7.974 7.974 0 0 0 309.987 28.255 A 10.678 10.678 0 0 0 308.9 28.201 A 11.926 11.926 0 0 0 302.141 30.328 A 15.996 15.996 0 0 0 300.55 31.551 Q 296.7 34.901 293.8 39.401 L 293.8 73.501 L 284.8 73.501 L 284.8 40.301 A 19.042 19.042 0 0 0 284.463 36.611 Q 284.027 34.406 283.028 32.662 A 10.982 10.982 0 0 0 282.3 31.551 A 7.974 7.974 0 0 0 276.487 28.255 A 10.678 10.678 0 0 0 275.4 28.201 A 12.02 12.02 0 0 0 269.081 30.029 A 16.244 16.244 0 0 0 267.1 31.451 Q 263.2 34.701 260.3 39.101 L 260.3 73.501 Z M 646.3 67.901 L 639.7 74.701 L 605.7 41.301 L 605.7 73.501 L 596.2 73.501 L 596.2 3.501 L 605.7 3.501 L 605.7 35.401 L 635.5 3.201 L 641.9 9.101 L 614.6 37.501 L 646.3 67.901 Z M 527.7 46.901 L 527.7 3.501 L 537.2 3.501 L 537.2 45.401 A 39.482 39.482 0 0 0 537.6 51.211 Q 538.481 57.119 541.3 60.901 A 13.242 13.242 0 0 0 549.756 66.057 A 20.418 20.418 0 0 0 553.6 66.401 A 21.386 21.386 0 0 0 558.604 65.852 A 13.455 13.455 0 0 0 566.3 61.051 A 17.382 17.382 0 0 0 569.096 55.656 Q 569.886 53.237 570.231 50.294 A 42.042 42.042 0 0 0 570.5 45.401 L 570.5 3.501 L 579.7 3.501 L 579.7 46.501 A 39.957 39.957 0 0 1 579.078 53.732 A 28.663 28.663 0 0 1 576.45 61.651 Q 573.2 68.001 567.35 71.351 A 25.023 25.023 0 0 1 558.789 74.305 A 32.816 32.816 0 0 1 553.6 74.701 A 32.706 32.706 0 0 1 545.595 73.776 A 22.492 22.492 0 0 1 534.6 67.501 Q 528.488 61.123 527.79 49.882 A 48.096 48.096 0 0 1 527.7 46.901 Z M 384.9 51.201 L 348.5 51.201 A 24.088 24.088 0 0 0 349.639 56.226 Q 350.975 60.038 353.6 62.601 Q 357.8 66.701 364.7 66.701 Q 369.2 66.701 372.8 65.751 Q 376.4 64.801 379.7 63.301 L 381.8 71.001 A 40.77 40.77 0 0 1 377.465 72.627 A 51.863 51.863 0 0 1 373.7 73.651 A 38.914 38.914 0 0 1 368.608 74.47 A 52.025 52.025 0 0 1 363.6 74.701 A 28.318 28.318 0 0 1 355.854 73.695 A 21.108 21.108 0 0 1 345.85 67.551 A 23.521 23.521 0 0 1 340.645 58.011 Q 339.3 53.346 339.3 47.501 A 35.359 35.359 0 0 1 340.133 39.679 A 28.84 28.84 0 0 1 342.25 33.551 A 24.642 24.642 0 0 1 347.266 26.469 A 22.887 22.887 0 0 1 350.5 23.851 A 21.048 21.048 0 0 1 360.759 20.379 A 26.205 26.205 0 0 1 362.8 20.301 Q 370.3 20.301 375.25 23.551 Q 380.2 26.801 382.7 32.301 A 28.185 28.185 0 0 1 385.126 42.164 A 33.434 33.434 0 0 1 385.2 44.401 A 75.204 75.204 0 0 1 384.909 51.097 A 69.426 69.426 0 0 1 384.9 51.201 Z M 515.9 51.201 L 479.5 51.201 A 24.088 24.088 0 0 0 480.639 56.226 Q 481.975 60.038 484.6 62.601 Q 488.8 66.701 495.7 66.701 Q 500.2 66.701 503.8 65.751 Q 507.4 64.801 510.7 63.301 L 512.8 71.001 A 40.77 40.77 0 0 1 508.465 72.627 A 51.863 51.863 0 0 1 504.7 73.651 A 38.914 38.914 0 0 1 499.608 74.47 A 52.025 52.025 0 0 1 494.6 74.701 A 28.318 28.318 0 0 1 486.854 73.695 A 21.108 21.108 0 0 1 476.85 67.551 A 23.521 23.521 0 0 1 471.645 58.011 Q 470.3 53.346 470.3 47.501 A 35.359 35.359 0 0 1 471.133 39.679 A 28.84 28.84 0 0 1 473.25 33.551 A 24.642 24.642 0 0 1 478.266 26.469 A 22.887 22.887 0 0 1 481.5 23.851 A 21.048 21.048 0 0 1 491.759 20.379 A 26.205 26.205 0 0 1 493.8 20.301 Q 501.3 20.301 506.25 23.551 Q 511.2 26.801 513.7 32.301 A 28.185 28.185 0 0 1 516.126 42.164 A 33.434 33.434 0 0 1 516.2 44.401 A 75.204 75.204 0 0 1 515.909 51.097 A 69.426 69.426 0 0 1 515.9 51.201 Z M 399.2 55.601 L 399.2 31.201 L 390.2 31.201 L 390.2 23.401 L 399.4 23.401 L 401.3 7.001 L 408.2 7.001 L 408.2 23.401 L 422.6 23.401 L 422.6 31.201 L 408.2 31.201 L 408.2 56.301 A 21.559 21.559 0 0 0 408.368 59.097 Q 408.841 62.703 410.65 64.401 Q 413.1 66.701 416.5 66.701 Q 419 66.701 421.25 65.901 Q 423.5 65.101 425.4 64.001 L 427.9 71.201 A 18.546 18.546 0 0 1 426.282 72.057 Q 425.48 72.435 424.534 72.809 A 43.365 43.365 0 0 1 422.5 73.551 Q 419.1 74.701 415.4 74.701 Q 407.9 74.701 403.55 69.751 A 16.116 16.116 0 0 1 400.322 63.848 Q 399.559 61.418 399.315 58.481 A 34.777 34.777 0 0 1 399.2 55.601 Z M 143.3 23.401 L 140.6 31.001 A 30.422 30.422 0 0 0 137.696 29.725 A 23.42 23.42 0 0 0 135.25 28.951 A 20.543 20.543 0 0 0 132.207 28.425 A 26.355 26.355 0 0 0 129.6 28.301 A 15.889 15.889 0 0 0 122.347 29.943 A 16.132 16.132 0 0 0 117.85 33.351 Q 113.1 38.401 113.1 47.301 A 25.192 25.192 0 0 0 113.805 53.361 A 21.45 21.45 0 0 0 115.1 57.101 A 18.564 18.564 0 0 0 118.01 61.678 A 16.275 16.275 0 0 0 120.65 64.101 Q 124.2 66.701 129 66.701 Q 132.165 66.701 134.568 66.111 A 15.08 15.08 0 0 0 135.5 65.851 Q 138.189 65.004 141.276 63.413 A 49.095 49.095 0 0 0 141.3 63.401 L 144.1 71.001 Q 141 72.701 137.15 73.701 Q 133.3 74.701 128.4 74.701 A 26.803 26.803 0 0 1 121.361 73.811 A 22.074 22.074 0 0 1 115.45 71.251 Q 109.9 67.801 106.9 61.651 Q 103.9 55.501 103.9 47.501 Q 103.9 40.001 106.95 33.801 Q 110 27.601 115.7 23.951 A 23.067 23.067 0 0 1 125.368 20.53 A 29.608 29.608 0 0 1 129.1 20.301 Q 133.5 20.301 136.85 21.101 Q 140.2 21.901 143.3 23.401 Z M 163.6 73.501 L 154.6 73.501 L 154.6 21.501 L 163.3 21.501 L 163.3 32.801 Q 164.6 29.501 166.8 26.651 Q 169 23.801 172.3 22.051 A 14.817 14.817 0 0 1 176.98 20.527 A 19.459 19.459 0 0 1 180 20.301 Q 181.5 20.301 183 20.451 A 18.972 18.972 0 0 1 184.055 20.584 Q 184.555 20.663 184.982 20.763 A 8.817 8.817 0 0 1 185.5 20.901 L 182.8 30.201 A 9.763 9.763 0 0 0 180.655 29.588 Q 179.559 29.401 178.3 29.401 A 12.958 12.958 0 0 0 171.67 31.246 A 15.609 15.609 0 0 0 171.25 31.501 Q 167.922 33.587 165.778 37.943 A 22.927 22.927 0 0 0 165.75 38.001 Q 163.987 41.608 163.67 46.828 A 39.09 39.09 0 0 0 163.6 49.201 L 163.6 73.501 Z M 445.9 73.501 L 436.9 73.501 L 436.9 21.501 L 445.6 21.501 L 445.6 32.801 Q 446.9 29.501 449.1 26.651 Q 451.3 23.801 454.6 22.051 A 14.817 14.817 0 0 1 459.28 20.527 A 19.459 19.459 0 0 1 462.3 20.301 Q 463.8 20.301 465.3 20.451 A 18.972 18.972 0 0 1 466.355 20.584 Q 466.855 20.663 467.282 20.763 A 8.817 8.817 0 0 1 467.8 20.901 L 465.1 30.201 A 9.763 9.763 0 0 0 462.955 29.588 Q 461.859 29.401 460.6 29.401 A 12.958 12.958 0 0 0 453.97 31.246 A 15.609 15.609 0 0 0 453.55 31.501 Q 450.222 33.587 448.078 37.943 A 22.927 22.927 0 0 0 448.05 38.001 Q 446.287 41.608 445.97 46.828 A 39.09 39.09 0 0 0 445.9 49.201 L 445.9 73.501 Z M 200.1 71.251 A 24.559 24.559 0 0 0 204.698 73.34 Q 208.753 74.701 213.4 74.701 Q 220.8 74.701 226.65 71.301 Q 232.5 67.901 235.9 61.751 A 26.255 26.255 0 0 0 238.553 54.609 A 34.184 34.184 0 0 0 239.3 47.301 A 34.542 34.542 0 0 0 238.815 41.392 A 25.795 25.795 0 0 0 235.85 32.951 Q 232.4 26.901 226.55 23.601 A 24.848 24.848 0 0 0 221.909 21.574 A 27.738 27.738 0 0 0 213.4 20.301 A 31.325 31.325 0 0 0 211.82 20.34 A 26.169 26.169 0 0 0 200.2 23.601 Q 194.3 26.901 190.9 33.001 A 26.023 26.023 0 0 0 188.151 40.591 A 35.006 35.006 0 0 0 187.5 47.501 A 34.82 34.82 0 0 0 187.765 51.854 A 27.451 27.451 0 0 0 190.85 61.651 Q 194.2 67.801 200.1 71.251 Z M 91.4 73.501 L 82.4 73.501 L 82.4 21.501 L 91.4 21.501 L 91.4 73.501 Z M 213.4 66.701 Q 221.3 66.701 225.7 61.351 A 18.802 18.802 0 0 0 229.519 53.261 A 27.105 27.105 0 0 0 230.1 47.501 Q 230.1 42.301 227.9 37.951 A 19.198 19.198 0 0 0 223.728 32.382 A 18.17 18.17 0 0 0 221.95 30.951 Q 218.2 28.301 213.4 28.301 A 19.249 19.249 0 0 0 208.174 28.972 A 14.037 14.037 0 0 0 201.1 33.501 A 17.878 17.878 0 0 0 197.426 40.874 Q 196.7 43.807 196.7 47.301 Q 196.7 52.501 198.9 56.951 A 19.437 19.437 0 0 0 202.43 61.991 A 17.627 17.627 0 0 0 204.85 64.051 Q 208.6 66.701 213.4 66.701 Z M 348.4 43.901 L 376.9 43.901 A 24.355 24.355 0 0 0 376.496 39.315 Q 376 36.731 374.896 34.708 A 12.422 12.422 0 0 0 373.1 32.201 A 12.488 12.488 0 0 0 366.139 28.425 A 18.395 18.395 0 0 0 362.6 28.101 A 13.58 13.58 0 0 0 357.488 29.036 A 12.524 12.524 0 0 0 353 32.151 Q 349.2 36.201 348.4 43.901 Z M 479.4 43.901 L 507.9 43.901 A 24.355 24.355 0 0 0 507.496 39.315 Q 507 36.731 505.896 34.708 A 12.422 12.422 0 0 0 504.1 32.201 A 12.488 12.488 0 0 0 497.139 28.425 A 18.395 18.395 0 0 0 493.6 28.101 A 13.58 13.58 0 0 0 488.488 29.036 A 12.524 12.524 0 0 0 484 32.151 Q 480.2 36.201 479.4 43.901 Z M 82.537 10.789 A 5.973 5.973 0 0 0 86.9 12.601 A 8.175 8.175 0 0 0 88.396 12.47 A 5.647 5.647 0 0 0 91.5 10.851 Q 93.2 9.101 93.2 6.301 A 7.26 7.26 0 0 0 93.2 6.22 A 6.06 6.06 0 0 0 91.35 1.851 A 7.395 7.395 0 0 0 91.292 1.793 A 6.059 6.059 0 0 0 86.9 0.001 A 8.264 8.264 0 0 0 85.244 0.158 A 5.661 5.661 0 0 0 82.3 1.701 A 5.588 5.588 0 0 0 80.829 4.333 A 7.987 7.987 0 0 0 80.6 6.301 A 5.992 5.992 0 0 0 81.092 8.719 A 6.643 6.643 0 0 0 82.45 10.701 A 7.466 7.466 0 0 0 82.537 10.789 Z" vector-effect="non-scaling-stroke"/></g></svg>